<svg width="50" height="47" viewBox="0 0 50 47" fill="none" xmlns="http://www.w3.org/2000/svg">
<circle cx="35" cy="32" r="15" fill="#079211"/>
<g clip-path="url(#clip0_2165_226)">
<path d="M25.3173 0.0772923C24.2216 -0.238528 23.0808 0.399558 22.7649 1.49526L14.5149 30.3703C14.1991 31.466 14.8372 32.6068 15.9329 32.9226C17.0286 33.2384 18.1694 32.6003 18.4853 31.5046L26.7353 2.62964C27.0511 1.53393 26.413 0.393113 25.3173 0.0772923ZM30.5122 7.81811C29.7065 8.62378 29.7065 9.93218 30.5122 10.7378L36.2679 16.4999L30.5058 22.2621C29.7001 23.0677 29.7001 24.3761 30.5058 25.1818C31.3114 25.9874 32.6198 25.9874 33.4255 25.1818L40.6442 17.963C41.4499 17.1574 41.4499 15.849 40.6442 15.0433L33.4255 7.82456C32.6198 7.01889 31.3114 7.01889 30.5058 7.82456L30.5122 7.81811ZM10.7444 7.81811C9.93877 7.01245 8.63037 7.01245 7.82471 7.81811L0.605957 15.0369C-0.199707 15.8425 -0.199707 17.1509 0.605957 17.9566L7.82471 25.1753C8.63037 25.981 9.93877 25.981 10.7444 25.1753C11.5501 24.3697 11.5501 23.0613 10.7444 22.2556L4.98233 16.4999L10.7444 10.7378C11.5501 9.93218 11.5501 8.62378 10.7444 7.81811Z" fill="white"/>
</g>
<defs>
<clipPath id="clip0_2165_226">
<rect width="41.25" height="33" fill="white"/>
</clipPath>
</defs>
</svg>
